<?xml version="1.0" encoding="UTF-8"?>
<svg xmlns="http://www.w3.org/2000/svg" xmlns:xlink="http://www.w3.org/1999/xlink" viewBox="0 0 127.18 131.2">
  <defs>
    <style>
      .cls-1 {
        fill: none;
      }

      .cls-2 {
        fill: #fff;
      }

      .cls-3 {
        fill: #fd0;
      }

      .cls-4 {
        fill: #1770b8;
      }

      .cls-5 {
        clip-path: url(#clippath);
      }
    </style>
    <clipPath id="clippath">
      <path class="cls-1" d="M58.79,125.54l1.05-7.66c1.48-10.76,12.22-23.05,22.62-34.93,12.48-14.28,25.39-29.04,25.39-43.9,0-12.93-6.87-25.99-22.22-25.99-9.42,0-20.94,5.69-27.82,17.96l-.56,1.04c-1.03,1.97-1.95,4.1-2.72,6.39-2.8-7.31-8.61-11.73-15.7-11.73-10.85,0-22.37,10.68-22.37,30.46,0,24.74,13.99,37.32,25.23,47.42,5.54,4.98,10.33,9.28,12.78,14.21l3.82,7.67.5-.95Z"/>
    </clipPath>
  </defs>
  <g id="SWEDEN">
    <g class="cls-5">
      <path class="cls-4" d="M11.16,21.82l97.94-11.44v105.92l-97.94,11.44V21.82Z"/>
      <path class="cls-3" d="M11.16,62.99l30.61-3.32V19.68l12.24-1.33v39.99l55.09-5.98v12.65l-55.09,5.98v45.86l-12.24,1.33v-45.86l-30.61,3.32v-12.65Z"/>
    </g>
  </g>
  <g id="White_Logo_RGB" data-name="White Logo RGB">
    <g id="WHITE_ESC_HEART">
      <path class="cls-2" d="M56.13,129.5c1.03,1.13,2.54.85,3.24-.61,16.53-34.89,66.75-50.66,66.75-95.11,0-16.16-10.88-32.38-31.78-32.75-19.9-.36-37.77,12.46-39.63,33.22-.56-13.14-9.18-19.2-19.12-19.2C16.03,15.03.01,32.69.82,59.25c1.34,41.78,41.51,54.94,55.31,70.25ZM52.57,44.25c.53,2.09,3.07,2.01,3.65-.05,8.61-31.2,48.19-34.61,48.19-3.02,0,24.94-44.21,51.56-47.58,75.24-8-15.53-37.39-24.07-37.39-57.83,0-28.74,27.94-34.77,33.12-14.34Z"/>
    </g>
  </g>
</svg>