<svg xmlns="http://www.w3.org/2000/svg" viewBox="0 0 182 60">
    <path
        d="M81.9824 36.7881C85.6039 36.7135 87.846 39.3961 87.8184 41.835C87.7982 43.5626 86.5345 44.9553 84.708 45.2842C84.5084 45.3208 84.2874 45.1654 84.249 44.9112C83.856 42.3628 82.7361 40.9698 81.5049 40.9942V40.9962C77.0224 41.1095 76.2581 55.8523 82.46 56.0215C84.0888 56.0672 85.4956 55.3494 86.3369 54.3887C86.5886 54.1027 86.8798 54.0307 87.084 54.3926C88.1602 56.3109 86.2854 59.9681 81.0273 60.0001C69.7242 60.0863 70.1204 37.1797 81.9824 36.7881ZM11.792 42.126C15.1293 41.8794 17.8804 43.0604 16.8477 45.8233C16.7479 46.0896 16.4392 46.2272 16.166 46.127C15.0392 45.716 13.803 45.5645 12.6885 45.5645C10.8294 45.5645 9.16406 46.3189 9.16406 47.5596C9.16439 48.8868 10.8362 48.9144 12.8594 49.2296L12.8604 49.2247C15.5991 49.6525 18.0205 50.2436 18.0205 53.8106C18.0203 58.2786 14.2023 59.9336 10.6055 59.9337C7.22651 59.9337 5.10131 58.0042 5.74609 55.2227C5.82453 54.8851 6.23423 54.7287 6.53809 54.9141C9.8125 56.9145 14.1968 56.5918 14.0283 54.3526C13.9454 53.2428 11.9039 53.2014 9.77148 52.7569C6.48189 52.0703 5.03717 50.5601 4.91113 48.1778C4.73612 44.8726 7.88034 42.4153 11.792 42.126ZM25.8633 40.5587C30.7099 40.2861 33.8955 43.5429 34.1934 49.1514C34.528 55.4678 31.2382 59.6381 26.9307 59.8819C22.7949 60.1163 19.2678 56.7784 18.9316 51.4454C18.5971 46.1262 21.0168 40.8327 25.8633 40.5587ZM139.105 41.296C139.727 39.7981 140.286 39.962 141.721 40.1036C144.794 40.4065 146.965 40.308 149.959 40.3506C150.263 40.3553 150.491 40.5532 150.485 40.8409H150.483C150.4 44.7563 145.729 43.9178 142.896 43.42C142.887 44.4993 142.648 45.6475 142.201 47.7969C143.918 47.9477 145.854 48.0978 147.237 47.9913C147.728 47.9549 148.003 48.2837 147.951 48.588C147.678 50.191 146.399 51.9859 141.534 51.0255C141.005 54.4844 140.974 55.942 142.997 56.044C144.348 56.1109 146.131 55.4544 147.991 53.8956C148.291 53.6462 148.764 53.7615 148.832 54.1495C149.392 57.4212 146.855 60.0145 140.961 59.879C137.751 59.8043 136.84 57.8338 136.896 54.4297C136.957 50.8292 137.434 45.7109 139.105 41.296ZM158.261 40.6426C161.038 40.664 163.592 41.8669 163.593 43.9874C163.593 44.4639 163.473 44.9821 163.192 45.5333C163.057 45.7997 162.728 45.8996 162.469 45.7549C161.09 44.9863 159.613 44.6299 158.276 44.6299C156.617 44.63 155.265 45.3719 155.265 46.7481C155.265 47.7969 156.846 48.2747 158.585 48.8243C161.33 49.6921 163.075 50.653 163.075 53.3995C163.075 56.5341 160.952 59.8604 156.067 59.8604C152.186 59.8604 149.382 57.775 150.702 54.1182C150.828 53.7712 151.259 53.664 151.537 53.9044C154.535 56.4863 159.103 56.7959 159.104 54.4014C159.104 53.3022 157.395 52.8037 155.547 52.0958C153.37 51.2615 151.001 50.0544 151.001 47.1954C151.001 43.259 153.88 40.6084 158.261 40.6426ZM45.6035 38.8038C48.9805 38.4401 50.1302 40.7191 50.293 43.919V43.918C50.494 47.9616 49.7515 55.0544 52.0742 58.5391C52.2797 58.8481 52.1385 59.2605 51.7949 59.3946C47.6607 61.0023 45.9041 57.4394 45.6416 53.1036C45.3254 47.8835 46.2432 43.4309 43.9453 43.6133C41.2695 43.8539 40.3634 52.924 40.8945 59.2481C40.9222 59.5798 40.657 59.8636 40.3057 59.8487C33.646 59.5701 37.0535 46.5344 35.1406 40.9532C35.0335 40.6488 35.2514 40.3122 35.6074 40.2315C38.4904 39.5662 39.8719 41.156 40.4922 43.753C41.6359 40.5469 43.4389 39.0382 45.6035 38.8038ZM107.301 37.1719C110.239 36.8935 111.455 39.1974 111.829 42.0626C113.274 38.7652 115.374 37.4266 117.551 37.5772C120.985 37.8162 121.767 40.2495 121.65 43.5303C121.501 47.7001 120.044 54.9022 122.057 58.588C122.235 58.9137 122.055 59.3251 121.699 59.4454C117.408 60.9115 116.127 57.1356 116.267 52.544C116.44 46.934 117.912 42.5054 115.345 42.376C112.298 42.2123 110.531 52.2185 110.468 59.0753C110.463 59.433 110.171 59.7268 109.818 59.6964C103.14 59.1163 108.138 44.2485 106.767 37.8985C106.688 37.5453 106.938 37.207 107.301 37.1719ZM164.584 45.0098C164.814 39.6175 171.568 43.7338 178.025 42.959V42.9571C178.432 42.9145 178.764 43.213 178.667 43.5235C178.077 45.4204 175.556 46.6216 172.547 46.5821C171.982 50.8371 171.653 56.129 171.3 59.1085C171.36 59.4038 171.083 59.7084 170.723 59.7374C165.523 60.1757 166.992 52.7665 168.675 46.0938C167.706 45.8929 166.64 45.6799 165.114 45.5733C164.786 45.5503 164.572 45.2958 164.584 45.0098ZM61.4297 37.7051C64.9544 37.4677 67.3828 39.5689 67.3828 41.8936C67.3826 43.7704 65.9616 44.9592 64.1719 45.3018C63.983 45.3384 63.7694 45.2212 63.7188 44.9913C63.2107 42.6805 62.0976 41.753 60.9355 41.8214C58.7755 41.9538 57.0985 44.1344 57.5283 49.2725C57.8814 53.5063 59.3391 55.6905 61.3916 55.6905C62.6826 55.6902 64.257 54.1373 64.5303 51.6758C62.8554 52.1355 60.3624 51.8176 60.3809 49.4473C60.3855 48.7532 60.6851 48.2833 61.2393 48.2833C62.0191 48.2833 62.5213 48.3174 63.8154 48.3174C65.0266 48.3174 65.908 48.1778 66.4883 48.1778C67.7009 48.1779 67.9692 48.8709 67.9492 49.6915L67.9482 49.6895C67.8761 52.5226 68.0676 56.706 68.2656 59.0186C68.2917 59.3245 68.0971 59.5666 67.8057 59.6231C65.7715 60.0174 64.7271 58.7691 64.4814 57.0001C63.5665 58.591 61.7807 59.7165 60.0674 59.753C56.0516 59.8289 53.0316 56.933 52.4697 50.8223C51.8649 44.3383 55.4056 38.1436 61.4297 37.7051ZM123.232 41.3741C123.601 35.6909 130.483 40.3708 137.069 39.2579H137.07C137.525 39.1848 137.865 39.4635 137.776 39.9522C137.31 42.5034 135.482 43.2707 132.134 43.1885C131.515 48.6599 130.589 56.0935 131.053 59.0518C131.11 59.4186 130.821 59.7584 130.448 59.751C125.124 59.6643 126.298 50.6607 127.953 42.6026C126.688 42.3453 125.405 42.0861 123.819 42.0206C123.446 42.0053 123.206 41.7759 123.232 41.3741ZM96.6699 36.712C101.788 36.7181 104.829 40.9473 104.705 47.5772C104.562 55.0492 100.668 59.7266 96.2109 59.7266C91.9308 59.7205 88.4279 55.5394 88.3818 49.1788C88.3344 42.8245 91.4886 36.7062 96.668 36.712H96.6699ZM26.2393 43.2676C24.5139 43.3653 23.2857 46.437 23.499 50.2549C23.7354 54.4825 25.1049 56.8672 26.9961 56.7608C28.8874 56.6542 29.7844 54.0049 29.5449 49.9141C29.3039 45.7975 28.3087 43.1504 26.2393 43.2676ZM96.8311 39.8438C94.995 39.856 93.3967 43.5141 93.3936 48.0674C93.3889 53.1079 94.7631 56.3081 96.7295 56.3145C98.6945 56.3191 99.9076 52.9726 99.9629 48.1085H99.9648C100.019 43.2461 98.9833 39.8301 96.8311 39.8438ZM10.749 12.7794C15.023 12.7794 16.8564 15.593 16.8564 18.8419C16.8564 24.9801 11.9746 30.745 5.90625 30.2794C6.52492 33.2571 8.18863 35.637 10.5312 35.628C13.095 35.6173 15.5361 33.8862 17.1572 29.6417C17.3584 29.118 18.0383 29.1518 18.2041 29.6983C19.799 34.9765 15.6876 40.46 9.48242 40.46C3.27747 40.4598 0 35.0004 0 28.1817C1.03555e-05 20.3917 4.22929 12.7812 10.749 12.7794ZM166.169 13.1983C169.491 13.2668 170.572 15.6318 170.56 18.9278C172.847 15.2846 175.465 14.0681 177.99 14.4122V14.4131C181.828 14.9354 182.376 17.8711 181.81 21.4503C181.083 25.9841 178.42 34.5917 180.083 38.961C180.229 39.3475 180.075 39.7429 179.555 39.8389C174.326 40.8209 173.641 36.6605 174.338 31.8741C175.425 24.4645 177.409 19.7433 174.892 19.3809C170.988 18.8276 168.389 29.0978 166.851 37.5743C166.781 37.9561 166.429 38.2211 166.042 38.1407C158.692 36.6335 166.076 20.9161 165.465 13.9083C165.426 13.5125 165.684 13.1892 166.169 13.1983ZM29.4297 11.1124C32.5599 10.5873 35.6611 15.2021 35.6611 22.7227C35.6611 32.7098 31.6477 36.8174 27.7529 36.8174C21.9548 36.8171 18.9982 26.5185 18.998 19.3145C18.998 14.082 20.8758 11.382 24.3438 12.0245C24.7075 12.093 24.9639 12.3081 24.9102 12.751C23.9707 20.4937 24.9959 31.2053 28.5449 31.2061C32.5763 31.2061 31.6815 18.124 28.9121 11.9962C28.7755 11.6932 28.877 11.2052 29.4297 11.1124ZM46.0693 9.75494C51.9044 9.75499 54.0644 12.2106 54.0645 15.8643C54.0645 19.5181 50.303 23.2744 46.2471 24.3858C49.2315 27.6849 53.1006 31.2853 56.4365 32.0313C56.9107 32.1365 57.0578 32.5613 56.915 32.9327C56.0446 35.1947 54.9038 36.3593 53.0264 36.5557C49.296 36.9467 45.7449 31.4021 42.9033 25.5577C43.0277 29.2404 43.2046 32.6293 43.5977 34.5567C43.6744 34.9343 43.4082 35.2947 43.0244 35.3419C39.7747 35.7436 38.2369 34.5474 37.8945 30.3214C37.655 27.3481 37.7811 22.8262 37.7412 18.6426H37.7422C37.7084 15.047 37.3076 13.5156 37.0312 12.8214C36.9453 12.6052 36.9839 12.361 37.1328 12.1768C38.3397 10.6774 42.7857 9.75494 46.0693 9.75494ZM144.05 24.0889C144.672 17.2046 148.087 10.8898 154.128 11.459C159.954 12.0086 162.83 16.918 161.921 24.128C160.894 32.2561 156.242 36.8706 151.285 36.3516L151.286 36.3506C146.325 35.8313 143.427 30.9807 144.05 24.0889ZM100.595 0.00201416C106.4 0.105664 109.42 4.57226 109.42 9.02057C109.42 21.2608 95.476 25.6065 90.8857 35.213C90.6923 35.616 90.2733 35.6922 89.9863 35.3819C86.1545 31.1679 75.0012 27.5428 74.6279 16.0381C74.4038 8.72305 78.8514 3.86155 84.2812 3.86139C87.0414 3.86139 89.4346 5.52996 89.5898 9.1485C90.1074 3.43353 95.0681 -0.0969412 100.595 0.00201416ZM138.037 10.0596C147.088 10.8091 141.134 26.1349 139.396 34.7471C139.321 35.1091 138.958 35.3383 138.59 35.2579H138.588C131.69 33.7841 139.233 17.7855 137.294 10.8829C137.16 10.4231 137.532 10.02 138.037 10.0596ZM127.627 9.16705C131.338 9.16705 134.65 10.7827 134.65 13.2901C134.65 13.9369 134.446 14.544 134.13 15.1163C133.917 15.5013 133.552 15.5933 133.179 15.4034C131.318 14.4504 129.189 13.9448 127.371 13.9356C124.985 13.9219 123.131 14.7241 123.131 16.4307C123.131 19.7738 133.992 18.8666 134.011 26.002C134.023 30.2998 130.517 34.1827 124.874 34.1827C119.054 34.1805 116.055 31.2722 117.794 27.0313C117.972 26.5974 118.427 26.3992 118.858 26.7432C121.08 28.5076 123.935 29.4717 126.273 29.4717C128.611 29.4716 129.516 28.505 129.517 27.3741C129.517 24.4115 118.135 24.5846 118.135 17.2667C118.135 12.5167 122.277 9.16707 127.627 9.16705ZM63.5205 8.83405C69.2634 8.57545 72.9466 12.7177 73.1523 19.9825H73.1533C73.3805 28.17 69.5591 33.6337 64.6787 33.8575C59.9905 34.0703 55.8875 29.5416 55.4453 22.6378C55.0032 15.7382 57.7712 9.09895 63.5205 8.83405ZM111.574 8.59967C119.219 8.88893 115.568 23.4369 113.32 33.0997C113.23 33.4816 112.966 33.625 112.625 33.6114C105.589 33.3663 112.026 16.2575 110.962 9.35162C110.893 8.93004 111.122 8.58467 111.574 8.59967ZM154.173 14.8917C152.108 14.7135 150.036 18.4984 149.539 23.4249V23.4239C148.988 28.8784 150.049 32.5088 152.238 32.7159C154.474 32.9275 156.035 29.4523 156.643 24.1817C157.251 18.9128 156.615 15.1019 154.173 14.8917ZM103.396 11.0606C103.396 2.36042 92.4039 3.30024 90.0137 11.8926C89.8538 12.4599 89.1486 12.4797 89.001 11.9063C87.5625 6.27793 79.8037 7.94005 79.8037 15.8536C79.8037 25.1524 87.9631 27.5014 90.1846 31.7794C91.1198 25.2589 103.396 17.9297 103.396 11.0606ZM64.2432 12.212C62.209 12.3018 60.7703 16.3956 61.0312 21.3389C61.3183 26.8135 62.8972 30.218 65.0557 30.1221C67.2139 30.0258 68.2481 26.3261 68.0439 21.0255C67.8382 15.7259 66.6826 12.1039 64.2432 12.212ZM10.6836 16.9756C8.50675 16.9756 5.70049 21.7508 5.64355 27.3135C9.865 26.945 12.1111 22.3406 12.1113 19.1192C12.1113 17.7978 11.6123 16.9758 10.6836 16.9756ZM48.5898 16.2833C48.5499 14.0926 46.7816 12.6902 42.6123 13.6202C43.0943 15.8688 42.9348 18.9899 42.7812 22.3194C46.6419 21.3891 48.6312 18.5455 48.5898 16.2833Z"
        fill="white"></path>
</svg>