<svg xmlns="http://www.w3.org/2000/svg" id="svg-menu-burger" viewBox="0 0 24 24">
    <path
        d="M12.1328 17.0005C12.6851 17.0005 13.1327 17.4483 13.1328 18.0005C13.1328 18.5528 12.6851 19.0005 12.1328 19.0005C11.5805 19.0005 11.1328 18.5528 11.1328 18.0005C11.1329 17.4483 11.5806 17.0005 12.1328 17.0005ZM18.5234 17.0005C19.0757 17.0005 19.5234 17.4482 19.5234 18.0005C19.5233 18.5526 19.0756 19.0005 18.5234 19.0005H17.5234C16.9713 19.0005 16.5236 18.5526 16.5234 18.0005C16.5234 17.4482 16.9712 17.0005 17.5234 17.0005H18.5234ZM5.72656 15.9995C6.27883 15.9995 6.72655 16.4472 6.72656 16.9995V17.9995C6.72656 18.5518 6.27884 18.9995 5.72656 18.9995C5.17428 18.9995 4.72656 18.5518 4.72656 17.9995V16.9995C4.72657 16.4472 5.17428 15.9995 5.72656 15.9995ZM13.1328 11.0005C13.6851 11.0005 14.1328 11.4482 14.1328 12.0005C14.1327 12.5527 13.685 13.0004 13.1328 13.0005H11.1328C10.5806 13.0005 10.1329 12.5527 10.1328 12.0005C10.1328 11.4482 10.5805 11.0005 11.1328 11.0005H13.1328ZM18.5234 11.0005C19.0756 11.0005 19.5233 11.4484 19.5234 12.0005C19.5234 12.5527 19.0757 13.0004 18.5234 13.0005C17.9712 13.0005 17.5234 12.5528 17.5234 12.0005C17.5236 11.4483 17.9713 11.0005 18.5234 11.0005ZM5.72656 10.9995C6.27873 10.9995 6.72639 11.4474 6.72656 11.9995C6.72656 12.5518 6.27884 12.9995 5.72656 12.9995C5.17428 12.9995 4.72656 12.5518 4.72656 11.9995C4.72674 11.4474 5.17439 10.9995 5.72656 10.9995ZM17.9229 5.00049C18.4751 5.00049 18.9228 5.44821 18.9229 6.00049V7.00049C18.9229 7.55277 18.4751 8.00049 17.9229 8.00049C17.3707 8.0003 16.9229 7.55266 16.9229 7.00049V6.00049C16.9229 5.44832 17.3707 5.00068 17.9229 5.00049ZM12.1328 5.00049C12.6851 5.00049 13.1328 5.44821 13.1328 6.00049C13.1328 6.55277 12.6851 7.00049 12.1328 7.00049C11.5805 7.00047 11.1328 6.55276 11.1328 6.00049C11.1328 5.44822 11.5805 5.00051 12.1328 5.00049ZM6.47656 4.99951C7.02885 4.99951 7.47656 5.44723 7.47656 5.99951C7.47656 6.5518 7.02885 6.99951 6.47656 6.99951H5.47656C4.92428 6.99951 4.47656 6.5518 4.47656 5.99951C4.47656 5.44723 4.92428 4.99951 5.47656 4.99951H6.47656Z"
        fill="white"></path>
</svg>