<svg xmlns="http://www.w3.org/2000/svg" viewBox="0 0 24 24">
    <path fill-rule="evenodd" clip-rule="evenodd"
        d="M8.06767 6.68232C8.06767 4.64863 9.71631 3 11.75 3C13.7837 3 15.4323 4.64863 15.4323 6.68232C15.4323 8.71601 13.7837 10.3646 11.75 10.3646C9.71631 10.3646 8.06767 8.71601 8.06767 6.68232Z"
        fill="white"></path>
    <path fill-rule="evenodd" clip-rule="evenodd"
        d="M5.00009 18.2246C5.06338 14.5507 8.06112 11.5921 11.75 11.5921C15.439 11.5921 18.4368 14.5508 18.4999 18.2249C18.5041 18.4686 18.3637 18.6916 18.1422 18.7932C16.1956 19.6865 14.0302 20.1842 11.7503 20.1842C9.47012 20.1842 7.30456 19.6864 5.35775 18.793C5.13626 18.6913 4.99589 18.4683 5.00009 18.2246Z"
        fill="white"></path>
</svg>